<?xml version="1.0" standalone="no"?>
<!DOCTYPE svg PUBLIC "-//W3C//DTD SVG 20010904//EN"
 "http://www.w3.org/TR/2001/REC-SVG-20010904/DTD/svg10.dtd">
<svg version="1.0" xmlns="http://www.w3.org/2000/svg"
 width="951.000000pt" height="262.000000pt" viewBox="0 0 951.000000 262.000000"
 preserveAspectRatio="xMidYMid meet">

<g transform="translate(0.000000,262.000000) scale(0.100000,-0.100000)"
fill="#000000" stroke="none">
<path d="M3304 2316 c-146 -34 -298 -145 -358 -263 -89 -177 -69 -401 50 -560
13 -17 24 -38 24 -45 0 -8 -34 -36 -76 -63 -195 -127 -304 -321 -304 -540 0
-322 208 -561 546 -631 123 -26 370 -15 489 20 105 32 216 89 309 158 l66 50
78 -70 c42 -39 93 -86 111 -106 l35 -36 140 0 141 1 -183 177 c-100 97 -182
180 -182 185 0 4 22 46 50 95 94 166 147 324 173 513 19 136 24 129 -97 129
l-102 0 -12 -114 c-16 -157 -79 -346 -144 -438 -11 -16 -24 -28 -29 -28 -6 0
-74 62 -152 138 -78 76 -248 241 -377 366 -313 304 -344 342 -376 466 -48 190
42 353 223 406 69 20 230 20 316 0 79 -18 192 -70 262 -120 l50 -36 3 95 c1
52 -2 103 -7 114 -14 25 -158 95 -251 121 -97 28 -325 37 -416 16z m150 -1289
c149 -145 311 -301 359 -348 58 -56 86 -90 82 -99 -20 -49 -191 -145 -310
-175 -92 -23 -276 -24 -362 -2 -150 39 -260 123 -320 245 -38 76 -38 76 -38
201 0 125 0 127 37 204 24 51 56 96 91 131 54 54 136 105 171 106 11 0 125
-104 290 -263z"/>
<path d="M190 2293 c-48 -18 -90 -83 -90 -140 0 -149 192 -200 277 -73 63 93
-11 221 -127 219 -25 0 -52 -3 -60 -6z"/>
<path d="M8768 1883 l-3 -218 -165 -5 -165 -5 -3 -87 -3 -88 168 -2 168 -3 6
-475 c6 -501 7 -519 56 -614 43 -84 139 -153 241 -175 99 -21 274 -5 365 32
l37 16 0 90 c0 50 -2 91 -3 91 -2 0 -29 -9 -59 -19 -80 -27 -174 -35 -244 -21
-47 10 -67 21 -100 54 -68 68 -69 74 -69 576 l0 445 248 3 247 2 0 90 0 90
-247 2 -248 3 -5 215 -5 215 -107 3 -108 3 -2 -218z"/>
<path d="M1597 1680 c-146 -26 -281 -91 -384 -184 -33 -31 -64 -56 -67 -56 -3
0 -6 47 -6 105 l0 105 -110 0 -110 0 2 -707 3 -708 108 -3 107 -3 0 483 c0
536 -5 492 69 571 92 99 209 168 322 192 88 19 147 19 227 0 132 -31 210 -100
258 -231 17 -44 19 -95 24 -529 l5 -480 108 -3 108 -3 -4 513 c-4 559 -4 562
-65 687 -55 112 -168 202 -296 237 -64 18 -235 26 -299 14z"/>
<path d="M5374 1666 c-309 -80 -514 -305 -566 -619 -20 -128 18 -339 84 -457
72 -129 198 -250 325 -314 188 -94 483 -101 684 -17 129 54 257 160 336 280
166 249 154 606 -29 849 -61 81 -102 120 -188 176 -180 119 -428 158 -646 102z
m361 -181 c181 -48 333 -201 382 -386 24 -92 21 -245 -6 -329 -56 -178 -193
-312 -371 -364 -72 -22 -235 -22 -314 -1 -337 89 -504 477 -343 798 69 139
208 252 353 286 64 15 234 13 299 -4z"/>
<path d="M6754 1646 c-3 -8 -4 -235 -1 -503 5 -536 6 -550 69 -682 36 -75 121
-167 187 -200 70 -36 185 -61 283 -61 204 0 384 71 530 208 38 36 64 35 54 -2
-3 -11 -3 -56 1 -99 l6 -78 101 3 101 3 3 713 2 713 -107 -3 -108 -3 -3 -484
-2 -484 -41 -54 c-44 -59 -144 -138 -224 -177 -85 -42 -170 -59 -265 -53 -176
10 -280 82 -342 236 -22 55 -23 66 -28 536 l-5 480 -103 3 c-83 2 -103 0 -108
-12z"/>
<path d="M142 943 l3 -708 95 -7 c52 -5 101 -6 108 -3 9 3 12 156 12 715 l0
710 -110 0 -110 0 2 -707z"/>
</g>
</svg>
